<svg data-v-1084b650="" xmlns="http://www.w3.org/2000/svg" viewBox="0 0 300 300"><!----> <!----> <rect data-v-1084b650="" fill="#ffffff00" x="0" y="0" width="300px" height="300px" class="logo-background-square"></rect> <!----> <linearGradient data-v-1084b650="" gradientTransform="rotate(25)" id="398b9071-be5b-70bb-b191-889d9ef3f3e1" x1="0%" y1="0%" x2="100%" y2="0%"><stop data-v-1084b650="" offset="0%" style="stop-color: rgb(81, 164, 251); stop-opacity: 1;"></stop> <stop data-v-1084b650="" offset="100%" style="stop-color: rgb(81, 164, 251); stop-opacity: 1;"></stop></linearGradient> <g data-v-1084b650="" id="b8d5f406-5515-6c3f-4ce1-de520bfe5e8d" fill="url(#398b9071-be5b-70bb-b191-889d9ef3f3e1)" stroke="none" transform="matrix(0.7499999999999998,0,0,0.7499999999999998,37.890941619873075,39.14249610900882)"><svg xmlns="http://www.w3.org/2000/svg" xmlns:xlink="http://www.w3.org/1999/xlink" xmlns:a="http://ns.adobe.com/AdobeSVGViewerExtensions/3.0/" version="1.1" x="0px" y="0px" viewBox="-1 -2.557 40 40" enable-background="new -1 -2.557 40 40" xml:space="preserve"><path display="none" d="M5.112,7.136C5.085,7.163,5.058,7.191,5.03,7.232C4.438,7.838,3.9,8.679,3.404,9.767  c-1.143,2.493-1.708,5.496-1.708,9.009s0.565,6.516,1.708,8.995c0.455,1.006,0.951,1.805,1.488,2.411L4.878,17.535h0.923v9.795  h2.011v-9.795h0.923v12.797c0.234,0.496,0.496,0.896,0.785,1.213H7.978v2.658h0.799c-0.014-0.123-0.014-0.248-0.014-0.385  c0-0.482,0.083-0.896,0.262-1.24c0.179-0.344,0.386-0.51,0.634-0.51s0.455,0.166,0.634,0.51s0.262,0.758,0.262,1.24  c0,0.137-0.014,0.262-0.028,0.385h0.992c-0.014-0.123-0.014-0.248-0.014-0.385c0-0.482,0.083-0.896,0.262-1.24  c0.179-0.344,0.386-0.51,0.634-0.51s0.454,0.166,0.634,0.51s0.262,0.758,0.262,1.24c0,0.137-0.014,0.262-0.027,0.385h0.854v-2.658  h-1.68c0.289-0.33,0.564-0.771,0.826-1.309c0.096-0.207,0.179-0.413,0.262-0.62c1.666,0.854,3.609,1.281,5.826,1.281  c2.273,0,4.243-0.44,5.924-1.336c0.082,0.233,0.179,0.454,0.275,0.675c0.262,0.537,0.537,0.979,0.826,1.309h-1.68v2.658h0.854  c-0.014-0.123-0.027-0.248-0.027-0.385c0-0.482,0.082-0.896,0.262-1.24c0.179-0.344,0.385-0.51,0.633-0.51s0.455,0.166,0.635,0.51  c0.178,0.344,0.262,0.758,0.262,1.24c0,0.137,0,0.262-0.014,0.385h0.991c-0.014-0.123-0.028-0.248-0.028-0.385  c0-0.482,0.084-0.896,0.262-1.24c0.18-0.344,0.387-0.51,0.635-0.51s0.454,0.166,0.633,0.51c0.18,0.344,0.262,0.758,0.262,1.24  c0,0.137,0,0.262-0.014,0.385h0.799v-2.658h-1.543c0.29-0.33,0.565-0.771,0.827-1.309c0.014-0.041,0.042-0.082,0.056-0.124V17.535  h0.922v9.795h2.012v-9.795h0.923v12.633c0.537-0.606,1.019-1.406,1.474-2.397c1.144-2.479,1.709-5.482,1.709-8.995  s-0.565-6.516-1.709-9.009c-0.496-1.074-1.033-1.915-1.611-2.534c-0.041-0.041-0.068-0.069-0.097-0.097V2.989l-3.581,1.818  l-0.041,0.028l-1.709,0.867l-0.014-0.014c-0.427-1.254-1.226-2.37-2.396-3.361C24.232,0.771,22.028,0,19.425,0  s-4.821,0.771-6.653,2.328c-1.157,0.992-1.942,2.107-2.355,3.348L5.112,2.989V7.136L5.112,7.136z M17.744,7.107L19.48,8.94  l2.052-1.833h7.549v12.688H9.837V7.107H17.744L17.744,7.107z"></path><path display="none" d="M26.464,14.863c0.771-0.799,1.157-1.777,1.157-2.934c0-1.144-0.386-2.135-1.157-2.948  c-0.771-0.813-1.708-1.212-2.796-1.212c-1.089,0-2.025,0.399-2.797,1.212c-0.771,0.813-1.157,1.805-1.157,2.948  c0,0.578,0.097,1.115,0.304,1.611h-1.089c0.192-0.496,0.29-1.033,0.29-1.611c0-1.144-0.387-2.135-1.158-2.948  c-0.771-0.813-1.707-1.212-2.796-1.212s-2.024,0.399-2.796,1.212c-0.772,0.813-1.158,1.805-1.158,2.948  c0,1.156,0.386,2.135,1.158,2.934c0.771,0.813,1.707,1.227,2.796,1.227c1.075,0,1.997-0.4,2.755-1.186l1.446,1.64l1.612-1.474  c0.729,0.675,1.584,1.02,2.59,1.02C24.756,16.09,25.692,15.676,26.464,14.863L26.464,14.863z M25.568,10.938  c0.537,0.537,0.799,1.171,0.799,1.915c0,0.743-0.262,1.378-0.799,1.901c-0.523,0.537-1.157,0.799-1.9,0.799  c-0.744,0-1.378-0.262-1.916-0.799c-0.523-0.523-0.785-1.158-0.785-1.901c0-0.744,0.262-1.378,0.785-1.915  c0.538-0.523,1.172-0.785,1.916-0.785C24.411,10.152,25.045,10.414,25.568,10.938L25.568,10.938z M13.35,10.938  c0.537-0.523,1.172-0.785,1.915-0.785s1.378,0.262,1.901,0.785c0.537,0.537,0.799,1.171,0.799,1.915  c0,0.743-0.262,1.378-0.799,1.901c-0.523,0.537-1.158,0.799-1.901,0.799s-1.378-0.262-1.915-0.799  c-0.523-0.523-0.785-1.158-0.785-1.901C12.564,12.108,12.826,11.475,13.35,10.938L13.35,10.938z"></path><path display="none" d="M24.838,13.927c0.289-0.427,0.428-0.937,0.428-1.529c0-0.606-0.139-1.116-0.428-1.542  c-0.289-0.428-0.633-0.635-1.033-0.635c-0.398,0-0.743,0.207-1.033,0.635c-0.289,0.426-0.426,0.936-0.426,1.542  c0,0.593,0.137,1.103,0.426,1.529c0.29,0.427,0.635,0.647,1.033,0.647C24.205,14.574,24.549,14.354,24.838,13.927L24.838,13.927z   M23.75,11.86c0.082,0,0.152,0.056,0.207,0.179c0.068,0.125,0.096,0.275,0.096,0.455s-0.027,0.316-0.096,0.441  c-0.055,0.123-0.125,0.192-0.207,0.192s-0.151-0.069-0.221-0.192c-0.055-0.125-0.082-0.262-0.082-0.441s0.027-0.33,0.082-0.455  C23.599,11.916,23.668,11.86,23.75,11.86L23.75,11.86z"></path><path display="none" d="M15.402,10.221c-0.399,0-0.744,0.207-1.033,0.635c-0.289,0.426-0.427,0.936-0.427,1.542  c0,0.593,0.138,1.103,0.427,1.529s0.634,0.647,1.033,0.647s0.744-0.221,1.033-0.647s0.428-0.937,0.428-1.529  c0-0.606-0.139-1.116-0.428-1.542C16.146,10.428,15.802,10.221,15.402,10.221L15.402,10.221z M15.348,11.86  c0.082,0,0.151,0.056,0.207,0.179c0.068,0.125,0.096,0.275,0.096,0.455s-0.027,0.316-0.096,0.441  c-0.056,0.123-0.125,0.192-0.207,0.192c-0.083,0-0.152-0.069-0.221-0.192c-0.055-0.125-0.082-0.262-0.082-0.441  s0.027-0.33,0.082-0.455C15.195,11.916,15.265,11.86,15.348,11.86L15.348,11.86z"></path><path d="M3.967,4.741C3.53,4.927,3.137,5.233,2.798,5.659c-0.623,0.776-0.94,1.716-0.94,2.819c0,0.317,0.022,0.612,0.077,0.907  C1.137,10.009,0.492,10.665,0,11.342c0.645-0.47,1.432-0.721,2.35-0.754c0.077,0,0.142,0,0.208,0c1.017,0,1.869,0.251,2.558,0.754  c0.623,0.448,0.984,0.995,1.071,1.618l-4.491,8.426l10.94,6.579l14.557-5.716l2.918,7.312l3.345-3.027l-4.491-4.722l6.316,3.05  l2.58-2.328l-8.352-2.94l7.05-1.181l-0.152-5.759l-10.524,5.759l-12.416-4.853h-2.373V7.277L8.558,4.741H3.967L3.967,4.741z   M3.628,8.315c0-0.317,0.099-0.58,0.285-0.809c0.208-0.229,0.458-0.339,0.732-0.339c0.273,0,0.514,0.109,0.71,0.339  c0.208,0.229,0.306,0.492,0.306,0.809c0,0.316-0.098,0.579-0.306,0.809c-0.196,0.229-0.437,0.339-0.71,0.339  c-0.273,0-0.524-0.109-0.732-0.339C3.727,8.894,3.628,8.632,3.628,8.315L3.628,8.315z"></path></svg></g></svg>