<svg data-v-1084b650="" xmlns="http://www.w3.org/2000/svg" viewBox="0 0 300 300"><!----> <!----> <rect data-v-1084b650="" fill="#ffffff" x="0" y="0" width="300px" height="300px" class="logo-background-square"></rect> <!----> <g data-v-1084b650="" id="4f8b0088-937a-4025-a740-c9d65ff446f3" fill="#000000" transform="matrix(6.099999999999998,0,0,6.099999999999998,31.599001067876856,91.91883535385136)"><path d="M6.58 16.87L6.58 16.87Q8.02 16.87 9.13 17.56L9.13 17.56L9.13 17.56Q10.25 18.26 10.86 19.49L10.86 19.49L10.86 19.49Q11.47 20.72 11.47 22.27L11.47 22.27L11.47 22.27Q11.47 23.87 10.54 25.22L10.54 25.22L10.54 25.22Q9.60 26.57 8.22 27.36L8.22 27.36L8.22 27.36Q6.85 28.15 5.59 28.15L5.59 28.15L5.59 28.15Q4.94 28.15 4.28 28.08L4.28 28.08L4.28 28.08Q3.21 28.01 2.62 28.01L2.62 28.01L0.84 28.01L0.84 27.58L2.16 26.54L2.16 18.03L0.70 17.56L0.98 17.00L2.60 17.00L2.60 17.00Q3.93 17.00 5.19 16.91L5.19 16.91L5.19 16.91Q6.15 16.86 6.58 16.86L6.58 16.86L6.58 16.87ZM5.98 27.12L5.98 27.12Q6.99 27.12 7.81 26.58L7.81 26.58L7.81 26.58Q8.64 26.04 9.11 25.08L9.11 25.08L9.11 25.08Q9.58 24.12 9.58 22.93L9.58 22.93L9.58 22.93Q9.58 21.50 9.13 20.34L9.13 20.34L9.13 20.34Q8.68 19.17 7.76 18.47L7.76 18.47L7.76 18.47Q6.85 17.77 5.49 17.77L5.49 17.77L5.49 17.77Q4.63 17.77 3.91 18.27L3.91 18.27L3.91 26.77L3.91 26.77Q4.76 27.12 5.98 27.12L5.98 27.12ZM17.64 20.43L17.64 20.43Q18.56 20.43 19.30 20.91L19.30 20.91L19.30 20.91Q20.03 21.39 20.45 22.22L20.45 22.22L20.45 22.22Q20.86 23.04 20.86 24.04L20.86 24.04L20.86 24.04Q20.86 25.12 20.20 26.06L20.20 26.06L20.20 26.06Q19.54 27.01 18.56 27.57L18.56 27.57L18.56 27.57Q17.57 28.14 16.65 28.14L16.65 28.14L16.65 28.14Q15.72 28.14 14.99 27.66L14.99 27.66L14.99 27.66Q14.25 27.17 13.84 26.35L13.84 26.35L13.84 26.35Q13.43 25.52 13.43 24.53L13.43 24.53L13.43 24.53Q13.43 23.45 14.08 22.50L14.08 22.50L14.08 22.50Q14.74 21.56 15.73 20.99L15.73 20.99L15.73 20.99Q16.72 20.43 17.64 20.43L17.64 20.43ZM16.83 21.60L16.83 21.60Q15.25 21.60 15.25 23.86L15.25 23.86L15.25 23.86Q15.25 25.19 15.82 26.07L15.82 26.07L15.82 26.07Q16.39 26.96 17.46 26.96L17.46 26.96L17.46 26.96Q19.04 26.96 19.04 24.70L19.04 24.70L19.04 24.70Q19.04 23.38 18.47 22.49L18.47 22.49L18.47 22.49Q17.89 21.60 16.83 21.60L16.83 21.60ZM30.00 20.57L30.00 21L26.46 28L25.40 28L23.21 22.67L21.91 21.91L21.91 21.48L24.30 20.30L24.84 22.41L26.54 26.59L28.52 22.48L26.66 21.13L26.94 20.57L30.00 20.57ZM38.12 26.07L35.64 28.03L35.64 28.03Q35.08 28.14 34.30 28.14L34.30 28.14L34.30 28.14Q33.38 28.14 32.64 27.66L32.64 27.66L32.64 27.66Q31.91 27.17 31.49 26.35L31.49 26.35L31.49 26.35Q31.08 25.52 31.08 24.53L31.08 24.53L31.08 24.53Q31.08 23.45 31.74 22.50L31.74 22.50L31.74 22.50Q32.40 21.56 33.38 20.99L33.38 20.99L33.38 20.99Q34.37 20.43 35.29 20.43L35.29 20.43L35.29 20.43Q36.62 20.43 37.36 21.48L37.36 21.48L37.36 21.48Q38.09 22.53 38.09 24.25L38.09 24.25L32.91 24.25L32.91 24.25Q33.00 25.44 33.56 26.19L33.56 26.19L33.56 26.19Q34.13 26.95 35.11 26.95L35.11 26.95L35.11 26.95Q36.02 26.95 37.70 25.54L37.70 25.54L38.12 26.07ZM34.48 21.60L34.48 21.60Q32.97 21.60 32.90 23.67L32.90 23.67L36.18 23.67L36.18 23.67Q36.05 22.92 35.92 22.52L35.92 22.52L35.92 22.52Q35.78 22.12 35.45 21.86L35.45 21.86L35.45 21.86Q35.13 21.60 34.48 21.60L34.48 21.60Z"></path></g> <linearGradient data-v-1084b650="" gradientTransform="rotate(25)" id="851777f6-0e07-619e-73a7-e0861cef0319" x1="0%" y1="0%" x2="100%" y2="0%"><stop data-v-1084b650="" offset="0%" style="stop-color: rgb(81, 164, 251); stop-opacity: 1;"></stop> <stop data-v-1084b650="" offset="100%" style="stop-color: rgb(81, 164, 251); stop-opacity: 1;"></stop></linearGradient> <g data-v-1084b650="" id="f216ed0a-1495-9920-22e2-ea71dc48926e" fill="url(#851777f6-0e07-619e-73a7-e0861cef0319)" stroke="none" transform="matrix(0.6751330906728565,0,0,0.6751330906728565,48.729389147919946,3.965344505927547)"><svg xmlns="http://www.w3.org/2000/svg" viewBox="0 0 99.999 68.007"><circle cx="13.335" cy="44.095" r="2.02"></circle><path d="M98.97 48.211c-11.74-4.688-23.077 1.095-35.083 7.217-6.003 3.062-12.213 6.227-18.636 8.122-17.95 5.3-32.268-9.386-32.477-9.604a1.637 1.637 0 0 0-2.373 2.253c.537.565 11.416 11.807 26.758 11.807 2.863 0 5.882-.392 9.019-1.317 6.713-1.982 13.061-5.217 19.198-8.347C76.702 52.569 87.4 47.114 97.757 51.25a1.635 1.635 0 1 0 1.213-3.039zM29.562 36.489c-3.855 4.445-5.504 9.982-3.599 13.961a1.636 1.636 0 1 0 2.953-1.413c-1.924-4.019 2.024-11.062 8.124-14.493 1.566-.881 3.242-1.795 5.017-2.763 9.928-5.417 22.045-12.029 27.322-19.612 2.002 4.059 4.604 13.154-5.132 22.89a1.636 1.636 0 1 0 2.313 2.315c2.798-2.8 4.696-5.577 5.932-8.243 1.244 2.975 2.276 8.664-3.796 14.737a1.632 1.632 0 0 0 0 2.312c.318.32.738.48 1.156.48.419 0 .838-.16 1.156-.48 10.534-10.533 3.267-20.697 2.919-21.168 2.293-9.615-3.189-16.942-3.268-17.044a1.636 1.636 0 0 0-2.776.299c-3.631 7.673-16.808 14.863-27.396 20.64a466.036 466.036 0 0 0-5.053 2.783 22.171 22.171 0 0 0-3.253 2.239 48.382 48.382 0 0 0-7.155-2.036c-.976-2.34.271-6.7 2.775-9.291l.421-.436c4.872-5.035 11.232-11.609 13.897-17.017 1.418 2.694 2.771 7.551-.609 13.784a1.638 1.638 0 0 0 2.878 1.561C50.803 8.66 42.887.558 42.807.477a1.638 1.638 0 0 0-2.764.86c-.901 4.837-8.888 13.092-14.172 18.555l-.422.436c-2.645 2.736-4.454 7.326-3.929 11.021-5.788-.615-12.24.206-15.232 5.824-1.3.372-3.866 1.3-5.811 3.245a1.635 1.635 0 1 0 2.314 2.313c1.934-1.935 4.916-2.545 4.941-2.55a1.639 1.639 0 0 0 1.184-.938c3.367-7.533 15.794-4.34 20.646-2.754z"></path></svg></g></svg>