<svg data-v-1084b650="" xmlns="http://www.w3.org/2000/svg" viewBox="0 0 300 300"><!----> <!----> <rect data-v-1084b650="" fill="#ffffff00" x="0" y="0" width="300px" height="300px" class="logo-background-square"></rect> <!----> <linearGradient data-v-1084b650="" gradientTransform="rotate(25)" id="1c5881d8-01a4-04b5-bb01-c8a6f99875c2" x1="0%" y1="0%" x2="100%" y2="0%"><stop data-v-1084b650="" offset="0%" style="stop-color: rgb(8, 199, 214); stop-opacity: 1;"></stop> <stop data-v-1084b650="" offset="100%" style="stop-color: rgb(2, 2, 62); stop-opacity: 1;"></stop></linearGradient> <g data-v-1084b650="" id="cb1556c2-c94d-3146-e020-5132a7756034" fill="url(#1c5881d8-01a4-04b5-bb01-c8a6f99875c2)" stroke="none" transform="matrix(0.6999999999999997,0,0,0.6999999999999997,45.00139465052638,44.9996662139893)"><svg xmlns="http://www.w3.org/2000/svg" viewBox="0 0 99.999 68.007"><circle cx="13.335" cy="44.095" r="2.02"></circle><path d="M98.97 48.211c-11.74-4.688-23.077 1.095-35.083 7.217-6.003 3.062-12.213 6.227-18.636 8.122-17.95 5.3-32.268-9.386-32.477-9.604a1.637 1.637 0 0 0-2.373 2.253c.537.565 11.416 11.807 26.758 11.807 2.863 0 5.882-.392 9.019-1.317 6.713-1.982 13.061-5.217 19.198-8.347C76.702 52.569 87.4 47.114 97.757 51.25a1.635 1.635 0 1 0 1.213-3.039zM29.562 36.489c-3.855 4.445-5.504 9.982-3.599 13.961a1.636 1.636 0 1 0 2.953-1.413c-1.924-4.019 2.024-11.062 8.124-14.493 1.566-.881 3.242-1.795 5.017-2.763 9.928-5.417 22.045-12.029 27.322-19.612 2.002 4.059 4.604 13.154-5.132 22.89a1.636 1.636 0 1 0 2.313 2.315c2.798-2.8 4.696-5.577 5.932-8.243 1.244 2.975 2.276 8.664-3.796 14.737a1.632 1.632 0 0 0 0 2.312c.318.32.738.48 1.156.48.419 0 .838-.16 1.156-.48 10.534-10.533 3.267-20.697 2.919-21.168 2.293-9.615-3.189-16.942-3.268-17.044a1.636 1.636 0 0 0-2.776.299c-3.631 7.673-16.808 14.863-27.396 20.64a466.036 466.036 0 0 0-5.053 2.783 22.171 22.171 0 0 0-3.253 2.239 48.382 48.382 0 0 0-7.155-2.036c-.976-2.34.271-6.7 2.775-9.291l.421-.436c4.872-5.035 11.232-11.609 13.897-17.017 1.418 2.694 2.771 7.551-.609 13.784a1.638 1.638 0 0 0 2.878 1.561C50.803 8.66 42.887.558 42.807.477a1.638 1.638 0 0 0-2.764.86c-.901 4.837-8.888 13.092-14.172 18.555l-.422.436c-2.645 2.736-4.454 7.326-3.929 11.021-5.788-.615-12.24.206-15.232 5.824-1.3.372-3.866 1.3-5.811 3.245a1.635 1.635 0 1 0 2.314 2.313c1.934-1.935 4.916-2.545 4.941-2.55a1.639 1.639 0 0 0 1.184-.938c3.367-7.533 15.794-4.34 20.646-2.754z"></path></svg></g></svg>